<svg width="126" height="129" viewBox="0 0 126 129" fill="none" xmlns="http://www.w3.org/2000/svg">
<g clip-path="url(#clip0_67_18)">
<path d="M62.1933 14C89.6973 14 112 36.9223 112 65.1992C112 87.8208 97.7289 107.012 77.939 113.782C75.45 114.256 74.5359 112.672 74.5359 111.319C74.5359 110.099 74.5824 106.065 74.6035 101.787C88.4601 104.884 91.384 95.7461 91.384 95.7461C93.6496 89.8281 96.9141 88.2548 96.9141 88.2548C101.433 85.077 96.5734 85.142 96.5734 85.142C91.5719 85.5034 88.9383 90.4184 88.9383 90.4184C84.4961 98.2457 77.2867 95.9826 74.4445 94.6748C73.9976 91.3652 72.7066 89.1069 71.2824 87.8284C82.3449 86.5334 93.9746 82.1433 93.9746 62.5253C93.9746 56.9358 92.0289 52.3682 88.8426 48.7828C89.3597 47.493 91.0644 42.2858 88.3601 35.2334C88.3601 35.2334 84.1777 33.8573 74.6597 40.4816C70.6871 39.3468 66.4261 38.7782 62.1933 38.759C57.9605 38.7782 53.6964 39.3468 49.716 40.4816C40.2093 33.8573 36.0328 35.2334 36.0328 35.2334C33.3218 42.2858 35.0273 47.493 35.5445 48.7828C32.3511 52.3682 30.4187 56.9354 30.4187 62.5253C30.4187 82.1899 42.0703 86.5202 53.1609 87.7874C51.3746 89.3764 49.7828 92.4924 49.7828 97.2688C49.7828 104.119 49.8406 109.633 49.8406 111.319C49.8406 112.682 48.9441 114.278 46.4191 113.776C26.6402 106.998 12.387 87.8131 12.387 65.1992C12.387 36.9223 34.6867 14 62.1933 14Z" fill="white"/>
<path d="M93.3457 86.9346C93.4551 87.1888 93.8449 87.2651 94.1992 87.0908C94.5605 86.9238 94.7637 86.5768 94.6465 86.3214C94.539 86.0596 94.1492 85.9866 93.7887 86.1624C93.4265 86.3291 93.2203 86.6792 93.3457 86.9346ZM90.8957 89.1817C91.1332 89.4081 91.5976 89.3029 91.9129 88.9452C92.2386 88.5882 92.2996 88.1111 92.0586 87.8811C91.8136 87.655 91.3633 87.7606 91.0367 88.118C90.7109 88.479 90.6476 88.9532 90.8961 89.1821M89.2148 92.0567C89.5203 92.2748 90.0195 92.0704 90.3277 91.615C90.6328 91.1601 90.6328 90.614 90.3211 90.3951C90.0117 90.1763 89.5203 90.3731 89.2078 90.8248C88.9031 91.2878 88.9031 91.8339 89.2152 92.0571M86.3726 95.3868C86.6457 95.696 87.2269 95.6132 87.6527 95.1908C88.0879 94.778 88.2094 94.1922 87.9355 93.8826C87.6594 93.5726 87.0746 93.6597 86.6457 94.0785C86.2133 94.4905 86.0816 95.0808 86.3726 95.3868ZM82.6992 96.5111C82.8191 96.9119 83.3793 97.0942 83.9433 96.9239C84.5066 96.7484 84.8754 96.2786 84.7617 95.8735C84.6445 95.4699 84.082 95.28 83.5136 95.4623C82.9511 95.6369 82.582 96.1031 82.6992 96.5111ZM78.5179 96.9877C78.5039 97.4102 78.9824 97.7603 79.5746 97.768C80.1703 97.7812 80.6519 97.4395 80.6582 97.0243C80.6582 96.5978 80.1906 96.2509 79.5953 96.2409C79.0031 96.2288 78.5179 96.5681 78.5179 96.9877ZM74.4109 96.8259C74.3398 97.2379 74.7515 97.6611 75.3394 97.7736C75.9175 97.882 76.4527 97.6278 76.5265 97.2194C76.5984 96.797 76.1789 96.3742 75.6019 96.2646C75.0129 96.1594 74.4859 96.4071 74.4109 96.8259Z" fill="white"/>
</g>
<defs>
<clipPath id="clip0_67_18">
<rect width="100" height="100" fill="white" transform="matrix(-1 0 0 1 112 14)"/>
</clipPath>
</defs>
</svg>
