<svg width="122" height="129" viewBox="0 0 122 129" fill="none" xmlns="http://www.w3.org/2000/svg">
<g clip-path="url(#clip0_67_18)">
<path d="M31.5877 14.0251C20.816 14.0251 12 22.8409 12 33.6128V94.3969C12 105.169 20.8158 113.981 31.5877 113.981H92.3718C103.144 113.981 111.956 105.169 111.956 94.3969V33.6128C111.956 22.8411 103.144 14.0251 92.3718 14.0251H31.5877ZM36.5143 30.5199C41.6791 30.5199 44.8604 33.9105 44.9586 38.3674C44.9586 42.7259 41.6789 46.2118 36.4144 46.2118H36.3175C31.251 46.2118 27.9763 42.7261 27.9763 38.3674C27.9763 33.9106 31.3501 30.5199 36.5142 30.5199H36.5143ZM81.0223 51.3509C90.9552 51.3509 98.4013 57.8431 98.4013 71.7945V97.8394H83.306V73.5407C83.306 67.4347 81.1213 63.2689 75.6584 63.2689C71.488 63.2689 69.0022 66.0767 67.9108 68.7891C67.5121 69.7595 67.4141 71.1148 67.4141 72.4723V97.8394H52.3188C52.3188 97.8394 52.5169 56.6781 52.3188 52.4161H67.4172V58.8485C69.4232 55.7535 73.0114 51.3508 81.0223 51.3508V51.3509ZM28.8667 52.4194H43.962V97.8396H28.8667V52.4194Z" fill="white"/>
</g>
<defs>
<clipPath id="clip0_67_18">
<rect width="100" height="100" fill="white" transform="translate(12 14)"/>
</clipPath>
</defs>
</svg>
