<svg width="118" height="129" viewBox="0 0 118 129" fill="none" xmlns="http://www.w3.org/2000/svg">
<path d="M60 14C32.3778 14 10 36.3778 10 64C10 91.6222 32.3778 114 60 114C87.6222 114 110 91.6222 110 64C110 36.3778 87.6222 14 60 14ZM35 39H85C85.8889 39 86.7556 39.2 87.5556 39.5556L60 71.6889L32.4444 39.5556C33.2444 39.1778 34.1111 39 35 39ZM28.7556 82.7556V45.2444C28.7556 45.1111 28.7556 44.9778 28.7778 44.8444L47.1111 66.2222L28.9778 84.3556C28.8222 83.8444 28.7556 83.2889 28.7556 82.7556ZM85 89H35C34.4444 89 33.9111 88.9333 33.3778 88.7778L51.1556 71L59.9778 81.2889L68.8 71L86.5778 88.7778C86.1111 88.9333 85.5556 89 85 89ZM91.2444 82.7556C91.2444 83.3111 91.1778 83.8444 91.0222 84.3778L72.8889 66.2444L91.2222 44.8667C91.2222 45 91.2444 45.1333 91.2444 45.2667V82.7556Z" fill="white"/>
</svg>
