<!--?xml version="1.0" encoding="utf-8"?-->
<!-- Svg Vector Icons : http://www.onlinewebfonts.com/icon -->

<svg version="1.1" xmlns="http://www.w3.org/2000/svg" xmlns:xlink="http://www.w3.org/1999/xlink" x="0px" y="0px" viewBox="0 0 256 256" enable-background="new 0 0 256 256" xml:space="preserve">
<metadata> Svg Vector Icons : http://www.onlinewebfonts.com/icon </metadata>
<g><g><g><path fill="#F1F1F1" data-title="Layer 0" xs="0" d="M10,26.9c0,6.1,0.3,11.1,0.9,11c0.5,0,29.4-4.9,64.5-11l63.7-10.9L74.6,16L10,15.8V26.9z"/><path fill="#F1F1F1" data-title="Layer 1" xs="1" d="M146.7,128v112.2h49.7H246v-31.9c-0.1-27.8-0.4-31.4-1.8-28.7c-5.6,10.4-49.5,19.3-82.4,16.7l-10.5-0.8v-15.1v-15.2l10.9,0.7c5.8,0.5,18,0.2,26.8-0.5c25.9-2,42.4-6.2,52-13.3c4.2-3,4.9-4.2,4.9-7.7c0-3.4-0.2-3.7-1.1-1.6c-2.3,5.8-15.8,11.7-34.7,15.1c-11.1,2-50.6,3.7-55.7,2.5l-3.2-0.8l0.3-14.5l0.4-14.5l23.4-0.6c24.4-0.5,39-2.3,51.9-6.5c11.9-4,18.8-9.2,18.8-14.4c0-2.7-0.1-2.7-4.4,1.4c-2.7,2.6-7.4,5.3-11.9,6.9c-14.1,4.9-24,6.2-51.6,6.9l-26.6,0.7v-15.3V94.4l26.1-0.6c20.4-0.5,28.4-1.2,37.5-3c19.7-4.3,31.2-11.1,31.1-18.6l-0.1-3.2l-1.6,3c-1.9,3.5-10.3,8.3-19.3,10.9c-15.5,4.7-49.8,7.7-65.8,6.1l-7.8-0.9V68.3V48.6l9.1-0.2c40.7-0.8,70.7,4.4,81,14.3l4.6,4.3V41.3V15.8h-49.7h-49.7V128z"/><path fill="#F1F1F1" data-title="Layer 2" xs="2" d="M71.5,91.4c-4.1,14.3-19.4,71.9-19.4,73.3c0,1.5,1.3,1.9,6.4,1.9h6.3l1.2-4.4c0.7-2.5,1.6-6.1,2-8.2l0.8-3.7h10.7h10.9l1.9,8.6c1.3,5.4,2.7,8.9,3.7,9.3c1.1,0.4,4.6,0.7,7.9,0.7h6.2l-8.5-30.7c-4.8-16.8-9.7-34.7-11.1-39.7l-2.5-9h-7.9C73.4,89.4,71.9,89.8,71.5,91.4z M83,119.8c1.6,6.8,3.3,13.2,3.6,14.3c0.6,1.9-0.2,2.1-7.1,2.1s-7.7-0.2-7.1-2.1c0.4-1.1,1.4-5.7,2.5-10.2c2.6-11.7,4.2-17.3,4.7-16.7C79.7,107.3,81.3,113,83,119.8z"/><path fill="#F1F1F1" data-title="Layer 3" xs="3" d="M10,228.7v11.4l66.4-0.1c36.5-0.1,65.1-0.5,63.6-0.7c-1.5-0.4-31.3-5.4-66.4-11.3L10,217.3V228.7z"/></g></g></g>
</svg>