<!--?xml version="1.0" encoding="utf-8"?-->
<!-- Svg Vector Icons : http://www.onlinewebfonts.com/icon -->

<svg version="1.1" xmlns="http://www.w3.org/2000/svg" xmlns:xlink="http://www.w3.org/1999/xlink" x="0px" y="0px" viewBox="0 0 256 256" enable-background="new 0 0 256 256" xml:space="preserve">
<metadata> Svg Vector Icons : http://www.onlinewebfonts.com/icon </metadata>
<g><g><g><path fill="#f1f1f1" data-title="Layer 0" xs="0" d="M39.5,246c-1.4,0-2.5-0.5-3.5-1.4c-0.9-0.9-1.4-2.1-1.4-3.5V14.9c0-1.4,0.5-2.5,1.4-3.5c0.9-1,2.1-1.4,3.5-1.4h122.9v54.1c0,1.4,0.5,2.5,1.4,3.5c0.9,0.9,2.1,1.4,3.5,1.4h54.1v68.8H83.7c-2.7,0-5,1-6.9,2.9c-1.9,1.9-2.9,4.2-2.9,6.9v49.2c0,2.7,1,5,2.9,6.9c1.9,1.9,4.2,2.9,6.9,2.9h137.7v34.4c0,1.4-0.5,2.5-1.4,3.5c-0.9,0.9-2.1,1.4-3.5,1.4H39.5z M177.2,59.2c-1.4,0-2.5-0.5-3.5-1.4c-0.9-0.9-1.4-2.1-1.4-3.5V10l49.2,49.2H177.2z M95.5,88V72.7l-14.9-8.6l14.9-8.3V40.7L62.1,60v7.8L95.5,88z M101.4,88l33.4-20.2V60l-33.4-19.4v15.1l14.9,8.3l-14.9,8.6V88z M93.6,196.8v-39.3l9.8-9.8h9.8l9.8,9.8v39.3h-9.8V187h-9.8v9.8H93.6z M132.9,196.8v-49.2h19.7l9.8,9.8v19.7l-9.8,9.8h-9.8v9.8L132.9,196.8L132.9,196.8z M172.3,196.8v-49.2h9.8v49.2H172.3z M103.4,177.2h9.8v-19.7h-9.8V177.2z M142.7,177.2h9.8v-19.7h-9.8V177.2z"/></g></g></g>
</svg>