<!--?xml version="1.0" encoding="utf-8"?-->
<!-- Svg Vector Icons : http://www.onlinewebfonts.com/icon -->

<svg version="1.1" xmlns="http://www.w3.org/2000/svg" xmlns:xlink="http://www.w3.org/1999/xlink" x="0px" y="0px" viewBox="0 0 256 256" enable-background="new 0 0 256 256" xml:space="preserve">
<metadata> Svg Vector Icons : http://www.onlinewebfonts.com/icon </metadata>
<g><g><path fill="#f1f1f1" data-title="Layer 0" xs="0" d="M206.7,12.3c9.8,0,19.1,3.9,26.2,10.9c7,7,10.9,16.3,10.9,26.2v157.3c0,9.8-3.9,19.1-10.9,26.2s-16.3,10.9-26.2,10.9H49.3c-9.8,0-19.1-3.9-26.2-10.9c-7-7-10.9-16.3-10.9-26.2V49.3c0-9.8,3.9-19.1,10.9-26.2c7-7,16.3-10.9,26.2-10.9L206.7,12.3 M206.7,10H49.3C27.7,10,10,27.7,10,49.3v157.3c0,21.7,17.7,39.4,39.3,39.4h157.3c21.6,0,39.3-17.7,39.3-39.3V49.3C246,27.7,228.3,10,206.7,10L206.7,10z"/><path fill="#f1f1f1" data-title="Layer 1" xs="1" d="M74.1,61.3H141c12.3,0,22.3,2.8,29.7,8.5c7.4,5.7,11.2,14.2,11.2,25.6c0,6.9-1.7,12.9-5.1,17.8c-3.4,4.9-8.3,8.8-14.6,11.5v0.4c8.5,1.8,14.9,5.8,19.3,12c4.4,6.2,6.6,14,6.6,23.5c0,5.4-1,10.5-2.9,15.1c-1.9,4.7-4.9,8.7-9.1,12.1c-4.1,3.4-9.4,6.1-15.8,8.1c-6.4,2-14.1,3-23,3H74.1V61.3L74.1,61.3z M98.2,118.9h39.3c5.8,0,10.6-1.6,14.5-4.9c3.9-3.3,5.8-8,5.8-14.2c0-6.9-1.7-11.8-5.2-14.6c-3.5-2.8-8.5-4.2-15.1-4.2H98.2V118.9L98.2,118.9z M98.2,179.3h42.6c7.3,0,13-1.9,17.1-5.7c4-3.8,6.1-9.2,6.1-16.1c0-6.8-2-12-6.1-15.7c-4.1-3.7-9.7-5.5-17.1-5.5H98.2V179.3z"/></g></g>
</svg>