<!--?xml version="1.0" encoding="utf-8"?-->
<!-- Svg Vector Icons : http://www.onlinewebfonts.com/icon -->

<svg version="1.1" xmlns="http://www.w3.org/2000/svg" xmlns:xlink="http://www.w3.org/1999/xlink" x="0px" y="0px" viewBox="0 0 256 256" enable-background="new 0 0 256 256" xml:space="preserve">
<metadata> Svg Vector Icons : http://www.onlinewebfonts.com/icon </metadata>
<g><g><g><path fill="#F1F1F1" data-title="Layer 0" xs="0" d="M119.1,10.1C91,12.5,65.9,23.8,46.3,42.8c-20,19.3-32.1,43.5-35.7,71.3c-0.9,6.7-0.7,23.6,0.3,30c1.6,10.2,3.6,18,6.9,26.5c14.9,38.1,48.6,66,88.6,73.4c46.8,8.6,93.5-11.2,119.8-50.9c30.7-46.2,25.2-107.1-13.4-147.1c-18.9-19.6-43.6-32-70.6-35.4C138.1,10.2,122.6,9.8,119.1,10.1z M134.3,29.8c4.1,7,7.4,12.9,7.4,13.2c0,0.3-3.3,6.2-7.4,13.2c-7.1,12.1-7.5,12.6-8.8,12.6c-5.9,0-17.4,3-23.5,6c-11.2,5.6-21.3,15.6-26.8,26.5c-2.3,4.4-4.3,10.5-5.2,15c-0.4,2.1-0.7,3.9-0.8,3.9c0,0.1-5.9-3.3-13-7.5c-7.1-4.2-13-7.6-13.2-7.6c-0.1,0-5.8,3.3-12.7,7.3c-9.3,5.5-12.5,7.2-12.6,6.6c-0.2-1.2,0.9-9.2,2.1-14.9C23.3,88.3,31,72.1,41.6,58.7c16.9-21.4,43.5-36.5,70.8-40.3c6-0.8,7.8-1,11.6-1.1l2.9-0.1L134.3,29.8z M143.6,18.3c11.2,1.6,22.8,5.2,33.2,10.4c22.5,11.2,39.4,28.2,50.4,50.5c6.8,13.9,10.3,27.1,11.3,42.7l0.3,4.8l-12.7,7.5c-7,4.1-13,7.5-13.2,7.5c-0.3,0-6.2-3.3-13.2-7.4l-12.6-7.4l-0.3-3.6c-0.4-4.9-1.4-9.7-3-14.5c-6.5-19.5-24.3-35.1-44.4-38.9c-2.1-0.4-3.9-0.8-3.9-0.8c-0.1-0.1,3.3-6,7.4-13c4.2-7.1,7.5-13.2,7.4-13.6c-0.2-0.6-12.6-21.7-14-24c-0.6-1-0.6-1,0.9-1C138.1,17.7,140.9,18,143.6,18.3z M135.8,77c10.8,1.6,20.7,6.6,28.6,14.5c17.5,17.5,20.2,44.9,6.4,65.3c-9.6,14.1-26,22.9-42.9,22.9c-19.5,0-37.4-11.2-46.3-28.9c-9.8-19.6-5.8-43.5,9.9-59.2C103.2,79.8,119.4,74.5,135.8,77z M56.2,121.5c12.1,7.1,12.6,7.5,12.6,8.8c0,3.3,1.6,11.6,3,15.9c2.9,8.8,7.2,15.9,13.6,22.5c8.7,9,19,14.6,31.2,17.1c2,0.4,3.7,0.8,3.8,0.8c0,0.1-3.3,5.9-7.5,13c-4.2,7.1-7.6,13-7.6,13.2c0,0.1,3.3,5.8,7.3,12.7c6.5,11.1,7.2,12.5,6.4,12.6c-3.2,0.6-19.7-2.9-28.2-5.9c-5.4-1.9-15-6.6-20.4-9.8c-31.1-19-50.6-51.7-53-88.5l-0.3-4.9l12.6-7.5c7-4.1,12.9-7.5,13.2-7.5C43.3,114.1,49.2,117.4,56.2,121.5z M199.5,142.9c6.8,4,12.6,7.3,12.9,7.5c0.4,0.1,6.3-3.1,13.1-7.1c11.2-6.6,12.5-7.2,12.6-6.4c0.3,1.8-1.3,12-2.9,18.1c-2.1,8.4-4.3,14.1-8.3,22.2c-10.8,21.9-27.4,38.5-49.4,49.7c-13.8,6.9-27.9,10.8-43.7,11.8l-4.8,0.3l-7.5-12.7c-4.1-7-7.5-13-7.5-13.2c0-0.3,3.3-6.2,7.4-13.2l7.4-12.6l3.6-0.3c27.6-2.4,49.1-22.4,53.8-49.8c0.2-1,0.5-1.7,0.6-1.6C187.1,135.6,192.8,139,199.5,142.9z"/><path fill="#F1F1F1" data-title="Layer 1" xs="1" d="M121.2,36.5c-3.4,1.5-4.7,7.5-2.5,11.6c0.7,1.3,3.2,2.7,4.9,2.7c1.9,0,4.6-1.8,4.5-3.1c0-0.6,0-1.8-0.1-2.9l-0.1-1.8h-2.5c-2.4,0-2.5,0.1-2.5,1.1c0,1,0.2,1.1,1.5,1c1.2,0,1.5,0.1,1.6,1c0.2,1.5-0.7,2.4-2.5,2.4c-2.1,0-3.4-2-3.4-5.4c0-3.9,2.4-5.9,4.9-4.1c0.9,0.6,2.4,0.5,2.4-0.2c0-0.2-0.5-0.8-1.1-1.4C125.1,36.4,122.6,35.9,121.2,36.5z"/><path fill="#F1F1F1" data-title="Layer 2" xs="2" d="M111.5,38c-0.1,0.3,0,2.2,0.5,4.2c0.4,2,0.7,3.8,0.6,3.9c-0.1,0.1-1.6-1.5-3.3-3.5c-2.6-3-3.3-3.6-4.1-3.4c-0.6,0.2-1.1,0.4-1.2,0.5c-0.2,0.1,1.9,10.6,2.5,12.7c0.3,0.9,1,1.1,1.9,0.5c0.4-0.3,0.3-1.3-0.4-4.4c-0.5-2.3-0.8-4.2-0.7-4.2c0.1-0.1,1.7,1.6,3.5,3.7c2.9,3.3,3.5,3.8,4.5,3.6c0.9-0.2,1.1-0.4,0.9-1.2c-0.1-0.5-0.8-3.6-1.5-6.8c-1.1-4.9-1.4-5.9-2.1-5.9C112.2,37.5,111.7,37.7,111.5,38z"/><path fill="#F1F1F1" data-title="Layer 3" xs="3" d="M98.7,41.1c-0.5,0.1-0.8,0.4-0.8,0.5c0,0.2,1,3.2,2.1,6.6c1.7,5.1,2.3,6.4,3,6.4c0.5,0,1-0.2,1.1-0.4c0.3-0.5-4-13.5-4.3-13.4C99.6,40.8,99.2,40.9,98.7,41.1z"/><path fill="#F1F1F1" data-title="Layer 4" xs="4" d="M90.6,44.2c-2.6,1.2-3.4,1.8-3.2,2.4c0.1,0.5,0.5,0.8,1.1,0.7c2.6-0.4,2.5-0.5,4.8,4.8c1.2,2.8,2.5,5.1,2.7,5c1.2-0.1,1.4-0.2,1.4-0.8c0-0.3-0.9-2.7-2.1-5.3c-1.2-2.6-2.1-4.9-2.1-5.1c0-0.3,0.5-0.7,1.2-1c1.2-0.6,1.4-1.9,0.2-2.1C94.3,42.7,92.5,43.3,90.6,44.2z"/><path fill="#F1F1F1" data-title="Layer 5" xs="5" d="M81.3,49c-1.7,1-3,2-3,2.2c0,0.2,1.5,3,3.4,6.2l3.4,5.8l3.1-1.8c3.6-2.1,3.9-2.4,3-3.1c-0.6-0.5-1.1-0.3-2.7,0.6c-1.2,0.6-2.2,1.2-2.3,1.2c-0.3,0-2.3-3.3-2.1-3.5c0.1,0,1.1-0.7,2.3-1.4c1.9-1.2,2.1-1.4,1.5-2.2c-0.6-0.8-0.7-0.8-2.5,0.3c-2.3,1.5-2.5,1.5-3.5,0c-1.1-1.6-1-1.8,1.4-3.2c1.4-0.8,2-1.4,1.8-1.9c-0.1-0.4-0.3-0.8-0.3-0.9C85,47,84.1,47.3,81.3,49z"/><path fill="#F1F1F1" data-title="Layer 6" xs="6" d="M73.8,54c-0.6,0.6-0.7,1.4-0.4,4.5c0.2,2,0.3,3.7,0.3,3.8c0,0-1-1-2.1-2.4c-1.7-2.1-2.1-2.4-2.8-2c-0.5,0.2-0.9,0.6-0.9,0.8c0,0.7,8.4,10.9,8.9,10.8c1.3-0.4,1.3-1.1,0.2-2.8c-1.3-1.8-1.7-3.6-0.6-3.2c0.3,0.1,1.8,0.6,3.2,1c2.6,0.8,2.7,0.8,3.6,0c0.9-0.8,0.9-0.9-3.2-2.2L75.9,61l-0.3-2.1c-0.1-1.2-0.3-3-0.3-3.9C75.3,53,74.9,52.8,73.8,54z"/><path fill="#F1F1F1" data-title="Layer 7" xs="7" d="M61.2,65.3l-2.5,2.4l2,2c1.1,1.1,3.4,3.3,5.1,4.8c2.9,2.6,3.2,2.8,3.9,2.1c0.7-0.7,0.6-0.9-1.1-2.6c-1.4-1.4-1.7-2-1.2-2.4c0.4-0.4,1.2-0.3,3.3,0.3c2.3,0.7,2.9,0.7,3.5,0.2c1.1-0.9,0.8-1.2-1.9-2.2c-2.4-0.8-2.7-1-2.7-2.3c-0.1-1.9-0.9-3.2-2.5-4.1C64.8,62.5,63.8,62.7,61.2,65.3z M66.5,66.4c1,1.3,0.9,2.1-0.7,3.5c-0.8,0.8-1,0.7-2.5-0.8l-1.6-1.6l1.3-1.2C64.6,64.9,65.3,64.9,66.5,66.4z"/><path fill="#F1F1F1" data-title="Layer 8" xs="8" d="M53.4,74.6c-0.7,1.1-0.6,1.2,3.3,6.4c5.4,7.1,5,6.8,5.7,5.3c0.5-1.1,0.4-1.4-0.3-2.2c-0.8-0.9-0.8-1,0.4-2.8c1.1-1.7,1.4-1.8,2.8-1.6c1.6,0.3,3.2-0.8,2.3-1.6c-0.3-0.3-12.8-4.7-13.3-4.7C54.2,73.5,53.8,74,53.4,74.6z M59,77.3c1.5,0.6,2.8,1.1,2.9,1.1c0.1,0.1-0.3,0.8-0.9,1.6l-1,1.5l-1.1-1.3c-1.8-2.1-3-3.9-2.8-3.9C56.2,76.3,57.5,76.7,59,77.3z"/><path fill="#F1F1F1" data-title="Layer 9" xs="9" d="M47.8,83.2L47,84.7l3.4,3.4c3.1,3.1,3.3,3.4,2,3.1c-2-0.4-7.3-1.2-7.7-1.2c-0.2,0-0.6,0.6-1.1,1.4L43,92.9l6,3c3.3,1.7,6.3,3,6.7,2.8c1.5-0.6,0.5-1.8-3.4-3.7l-4.1-2.1l2.3,0.3c6.2,0.7,8.1,0.8,8.1,0.4c0-0.3-1.7-2-3.7-3.8c-2.1-1.8-3.6-3.4-3.5-3.6c0.1-0.1,2.1,0.7,4.4,1.9c4.1,2.1,4.2,2.1,4.7,1.2c0.3-0.5,0.5-1,0.4-1.1c-0.1,0-2.9-1.5-6.2-3.2l-6.1-3L47.8,83.2z"/><path fill="#F1F1F1" data-title="Layer 10" xs="10" d="M184.2,58.5c-1.9,1.1-2.3,2.9-1.3,5.8c0.5,1.3,0.9,2.8,0.9,3.3c0,0.9-1.3,1.7-2.3,1.4c-1-0.3-2.3-2-2.3-3c0-0.8-0.8-1-1.8-0.4c-0.5,0.3-0.5,0.6,0,2c1.6,3.7,5.7,4.8,7.9,2.2c1.4-1.7,1.5-2,0.2-5.3c-1-2.7-0.9-3.7,0.3-4.2c0.8-0.3,3,1.5,3,2.4c0,0.3,0.5,0.6,1.2,0.6s1.2-0.3,1.2-0.6c0-1.2-1.9-3.6-3.5-4.3C185.8,57.7,185.7,57.7,184.2,58.5z"/><path fill="#F1F1F1" data-title="Layer 11" xs="11" d="M190,69.8c-3.3,1.5-6.2,2.8-6.4,2.9c-0.2,0-0.1,0.6,0.2,1.2c0.4,0.6,0.9,0.9,1.3,0.7c1.8-0.8,2.6-0.6,3.9,1c1.2,1.6,1.3,1.7,0.5,2.8c-0.7,1.2-0.7,1.2,0.1,2.1c0.9,0.8,0.9,0.8,4.7-5.1c2.1-3.3,3.8-6.2,3.8-6.4c0-0.4-1.5-1.9-1.9-1.9C196.1,67.1,193.3,68.3,190,69.8z M193.4,72.6c-1,1.5-1.9,2.8-2,2.8c-0.1,0-0.6-0.6-1.2-1.4l-1-1.4l2.9-1.4c1.6-0.8,3-1.4,3-1.4C195.2,69.8,194.5,71.1,193.4,72.6z"/><path fill="#F1F1F1" data-title="Layer 12" xs="12" d="M196.6,78.4l-5.9,3.9l1.9,2.9c1.1,1.5,1.9,2.9,2,3c0.2,0.3,1.6-0.5,1.6-0.9c0-0.2-0.6-1.3-1.2-2.3c-0.8-1.2-1.1-2-0.7-2.2c4.8-3.1,9.4-6.3,9.4-6.5c0-0.2-0.3-0.6-0.6-1.1C202.5,74.6,201.8,75,196.6,78.4z"/><path fill="#F1F1F1" data-title="Layer 13" xs="13" d="M202.2,86.3c-3.1,1.7-5.9,3.1-6.1,3.4c-0.2,0.2,0.4,1.8,1.2,3.6c1.5,3,1.8,3.2,2.6,2.8c0.9-0.5,0.9-0.6-0.3-2.8c-0.6-1.3-1.1-2.4-1-2.5c0.3-0.2,3.1-1.6,3.3-1.6c0.1,0,0.7,0.9,1.2,1.9c1.2,2.5,1.1,2.4,2.2,2c1-0.3,0.9-0.3-0.2-2.6c-0.6-1.2-1.1-2.4-1-2.4c0.2-0.2,3.1-1.6,3.3-1.6c0.1,0,0.6,1,1.2,2.3c1.2,2.4,1.2,2.5,2.3,1.8c0.6-0.3,0.4-0.9-0.9-3.7c-0.9-1.8-1.7-3.4-1.8-3.5C208,83.3,205.4,84.6,202.2,86.3z"/><path fill="#F1F1F1" data-title="Layer 14" xs="14" d="M208,95.3c-0.7,0.7-1.2,1.8-1.3,3.5c-0.3,2.7-0.9,3.7-2.2,3.7c-1.3,0-2-1.2-1.9-3.5c0-1.9,0-2.1-1-1.9c-1.2,0.1-1.5,1.4-1,3.9c0.6,3.5,4.3,5,6.9,2.8c0.9-0.8,1.2-1.7,1.5-3.7c0.2-1.8,0.6-2.9,1.2-3.2c1.3-0.8,2.4,0.2,2.5,2.4c0.1,1.5,0.3,1.9,1,1.9c1.8,0,1.6-3.7-0.3-5.8C212,93.9,209.5,93.9,208,95.3z"/><path fill="#F1F1F1" data-title="Layer 15" xs="15" d="M98.3,114.3c-2.9,1.1-5,2.6-6.3,4.6c-2.2,3.3-2.6,4.8-2.6,9.6c0,3.6,0.2,4.8,1.1,6.6c3.5,7.2,13.1,9.6,19,4.6l1.5-1.2l-1.7-1.9l-1.7-1.9l-1.7,1.2c-2.2,1.5-5.5,1.5-7.3,0.1c-4.2-3.3-3.9-13,0.4-15.6c1.8-1.1,4.7-1.1,6.6,0l1.5,0.9l1.8-1.8l1.8-1.8l-1.2-0.9C106.3,113.9,101.6,113,98.3,114.3z"/><path fill="#F1F1F1" data-title="Layer 16" xs="16" d="M115,128v13.9l3.1-0.1l3.1-0.1l0.1-5l0.1-4.9h1.6c1.5,0,1.6,0.1,4.2,5.1l2.7,5.1h3.4c2.5,0,3.4-0.1,3.2-0.6c-0.1-0.3-1.5-2.7-3-5.4l-2.8-4.8l1.6-1.3c2.2-1.8,3-3.5,3-6.8c0-3.2-0.7-4.9-2.7-6.6c-1.9-1.6-5.1-2.2-11.8-2.2H115V128z M127.6,119.7c1.4,0.7,1.7,1.3,1.7,3.2c0,2.4-1.5,3.6-5,4l-2.8,0.3v-4v-4h2.6C125.4,119.2,127,119.4,127.6,119.7z"/><path fill="#F1F1F1" data-title="Layer 17" xs="17" d="M140.9,127.8l0.1,13.8l3,0.1l3,0.1l-0.3-8.7c-0.2-4.8-0.4-9.2-0.6-9.8c-0.2-0.6,0.8,1.8,2.2,5.3c3.9,10.2,4.2,10.8,5.5,10.8c1,0,1.3-0.6,3.5-6.1c1.3-3.3,2.7-7.1,3.1-8.3c0.4-1.2,0.8-2.1,0.9-2c0.1,0.1,0,2.5-0.3,5.4c-0.2,2.9-0.4,7-0.3,9.2l0.1,3.9l2.9,0.1l2.9,0.1V128v-13.9l-3.3,0.1l-3.3,0.1l-3,8.4c-1.7,4.8-3.1,8.2-3.3,7.8c-0.2-0.3-1.6-4.2-3.2-8.6l-2.9-7.9h-3.4h-3.4L140.9,127.8z"/><path fill="#F1F1F1" data-title="Layer 18" xs="18" d="M37.2,139.7c-0.1,0.4,0,2.3,0.4,4.2c0.6,3.2,0.7,3.6,1.7,3.7c1,0.1,1.1,0,0.8-1.5c-0.4-1.9-0.8-1.7,6.2-2.8c5.6-1,5.4-0.9,5.2-2.2l-0.2-1.1l-4.7,0.8c-2.6,0.4-5.3,0.9-5.9,1c-1.1,0.2-1.3,0-1.5-1.3C38.8,139,37.6,138.4,37.2,139.7z"/><path fill="#F1F1F1" data-title="Layer 19" xs="19" d="M49.9,148.5c-1.9,1.9-2.1,2-3,1.4c-2.3-1.6-6.4-0.2-6.9,2.5c-0.3,1.3,1.2,6.8,1.9,6.7c0.2,0,3.2-1,6.7-2.1c5.8-1.8,6.3-2,6-2.9c-0.4-1.4-0.4-1.4-2.8-0.6c-2.8,0.9-3,0.9-3-0.1c0-0.5,0.9-1.7,2-2.7c1.6-1.5,2-2.1,1.8-3c-0.1-0.6-0.4-1.2-0.6-1.2C52.1,146.4,51.1,147.3,49.9,148.5z M46.1,152.1c0.3,0.3,0.6,1.1,0.8,1.8c0.3,1.1,0.1,1.2-1.8,1.8c-1.2,0.3-2.2,0.5-2.3,0.4c-0.7-0.7-0.7-3,0-3.7C43.6,151.4,45.4,151.3,46.1,152.1z"/><path fill="#F1F1F1" data-title="Layer 20" xs="20" d="M49.2,159.8c-3.1,1.4-5.2,4.5-4.6,6.7c1.2,4.4,5,5.6,9.8,3.2c3.7-1.8,5.2-5.1,3.7-8.3C57,158.9,52.8,158.1,49.2,159.8z M56.2,162.4c0.6,0.9,0.7,1.4,0.3,2.3c-1.3,3-6.9,5-8.9,3.3c-2.6-2.4,1.1-6.6,5.9-6.7C55.1,161.2,55.6,161.4,56.2,162.4z"/><path fill="#F1F1F1" data-title="Layer 21" xs="21" d="M52.4,173.8c-0.9,0.9-1.6,2-1.6,2.7c0,0.9,1.5,3.6,3.3,6.1c0.3,0.3,11.1-6.6,11.6-7.4c0.1-0.2,0-0.7-0.4-1.2c-0.6-0.8-0.7-0.7-2.7,0.6l-2.1,1.5l-1.8-1.9C56.4,171.7,54.7,171.6,52.4,173.8z M57.7,176l1,1.3l-1.9,1.3l-1.9,1.2l-0.9-1.1c-1.2-1.4-1.1-2.6,0.1-3.5C55.7,174.3,56.6,174.4,57.7,176z"/><path fill="#F1F1F1" data-title="Layer 22" xs="22" d="M60.7,182.1c-3.1,1.7-3.3,4.4-0.6,7.7c1.1,1.3,2.1,2.4,2.3,2.4c0.2,0,2.7-2.1,5.5-4.7c4.1-3.8,4.9-4.8,4.5-5.3c-0.8-1-1.4-0.8-3.2,1l-1.7,1.6l-1.6-1.6C64.2,181.4,62.5,181,60.7,182.1z M64.7,185l1.1,1.2l-1.3,1.4c-1.5,1.6-1.9,1.7-3.1,0.6c-1-0.9-1.1-2.4,0-3.5C62.3,183.5,63.4,183.6,64.7,185z"/><path fill="#F1F1F1" data-title="Layer 23" xs="23" d="M72.8,187c-0.6,0.5-2.6,2.6-4.3,4.7c-2.9,3.5-3,3.7-2.2,4.3c1,0.7,1.1,0.6,5.9-5c2.4-2.8,3.7-3.3,5.1-1.8c1.6,1.7,1.2,2.4-5.1,9.9c-0.6,0.6-0.6,1-0.1,1.5c0.3,0.4,0.7,0.7,0.9,0.7c0.5,0,6.1-6.7,6.9-8.2c1.2-2.3,0.2-5.1-2.3-6.4C75.8,185.9,74.2,185.9,72.8,187z"/><path fill="#F1F1F1" data-title="Layer 24" xs="24" d="M82,194.2c-1.6,1.6-1.6,3.4,0.2,6.4c1.5,2.7,1.4,3.9-0.3,3.9c-1.1,0-2.7-1.2-3-2.3c-0.3-0.8-1.8-0.1-1.8,0.8c0,1.3,2.5,3.3,4.5,3.6c1.6,0.2,2,0,3-0.9c1.6-1.6,1.5-3.5-0.3-6.4c-1.6-2.6-1.4-3.7,0.5-4c1.2-0.2,3.3,1.5,3.3,2.5c0,0.7,0.2,0.7,1.4,0.1c0.8-0.5,0.8-0.6,0.2-1.9C88.2,193.1,84.2,192.1,82,194.2z"/><path fill="#F1F1F1" data-title="Layer 25" xs="25" d="M198.3,160.3c-0.4,1.2-0.6,0.9,2.4,2.4c1.3,0.6,2.4,1.3,2.4,1.4c0,0.1-0.5,1.2-1,2.3c-0.9,1.8-0.9,2.2-0.4,2.5c1.1,0.7,1.1,0.6,2.2-1.6c1.1-2.3,1.4-2.4,3.4-1.4l1.3,0.7l-1.2,2.4c-1,1.9-1.1,2.4-0.6,2.7c0.3,0.2,0.7,0.4,0.9,0.4c0.3,0,3.6-6.1,3.6-6.7c0-0.3-11.8-6.2-12.4-6.2C198.8,159.4,198.4,159.8,198.3,160.3z"/><path fill="#F1F1F1" data-title="Layer 26" xs="26" d="M192.4,170.9c-2,3-2.1,3.2-1.2,3.7c0.7,0.4,1.1,0.2,2.3-1.6c0.8-1.2,1.6-2.1,1.7-2.1c0.1,0,1,0.4,1.8,1c1.7,1.1,1.8,0.6-0.6,4.4c-0.6,1-0.6,1.2-0.1,1.6c1,0.6,1.2,0.6,2.6-1.7c0.7-1.2,1.4-2.1,1.5-2.1c0.1,0,0.8,0.5,1.6,1.1l1.3,1.1l-1.3,1.9c-1.2,1.9-1.3,3.2-0.2,3.2c0.6,0,4.8-6,4.4-6.2c-0.6-0.5-11.4-7.6-11.6-7.6C194.6,167.7,193.5,169.1,192.4,170.9z"/><path fill="#F1F1F1" data-title="Layer 27" xs="27" d="M186.7,178.4c-2.2,2.5-2.3,3-1.7,3.6c0.6,0.6,0.9,0.5,2.5-1.3l1.8-2l1.4,1.1c0.7,0.6,1.4,1.3,1.4,1.5c0,0.2-0.6,1.2-1.4,2.2c-1.3,1.7-1.4,1.9-0.7,2.5c0.6,0.6,0.9,0.6,2.2-1.2c0.9-1.1,1.7-1.9,1.9-1.9c0.2,0,0.9,0.5,1.6,1.1l1.3,1.1l-1.7,2.1c-1.6,1.9-1.7,2.2-1,2.7c0.6,0.5,1.1,0.3,3.2-2.1c1.3-1.5,2.4-2.9,2.4-3c-0.1-0.3-10.4-9.2-10.6-9.2C189.1,175.5,188,176.8,186.7,178.4z"/><path fill="#F1F1F1" data-title="Layer 28" xs="28" d="M180.4,185.1c-3.5,3.6-3.4,6.7,0.3,10.2c3.4,3.1,6.4,3,9.7-0.4l1.8-1.8l-4.5-5.1c-2.5-2.8-4.7-5.1-4.8-5.1C182.7,182.9,181.6,183.9,180.4,185.1z M186.2,189.7l3.1,3.6l-1.3,1c-0.7,0.6-1.8,1.1-2.5,1.1c-2.2,0-5.4-3.6-5.4-5.9c0-1.1,1.7-3.3,2.4-3.3C182.8,186.2,184.4,187.8,186.2,189.7z"/><path fill="#F1F1F1" data-title="Layer 29" xs="29" d="M171.5,191.9c-3,2-3.9,3-3.9,4.4c0,1.5,2,4.1,3.2,4.1c0.6,0,0.8,0.3,0.8,1.3c-0.1,2.6,1.9,4.6,4.1,4c1.6-0.4,5.7-3.1,5.6-3.7c-0.3-1-7.1-11.2-7.5-11.2C173.6,190.7,172.5,191.3,171.5,191.9z M175,196.6c0,0.7-1.8,2-2.9,2c-1,0-2.4-1.9-2-2.8c0.1-0.4,0.8-1,1.5-1.5c1.2-0.7,1.3-0.7,2.3,0.5C174.5,195.5,175,196.3,175,196.6z M178.2,201.7c0,0.3-0.6,0.9-1.4,1.3c-1.3,0.7-1.5,0.7-2.3,0c-1.3-1.2-1.1-2.3,0.6-3.3l1.5-1l0.8,1.2C177.8,200.6,178.2,201.4,178.2,201.7z"/><path fill="#F1F1F1" data-title="Layer 30" xs="30" d="M164.5,196.4c-0.8,0.4-0.9,0.7-0.7,1.9c0.2,1.3,0,1.5-1.4,2.3c-2.2,1-2.9,1-3.6-0.1c-0.6-0.8-0.8-0.9-1.8-0.4l-1.2,0.6l4.9,5.4c2.7,3,4.9,5.5,5,5.5s0.7-0.2,1.3-0.6c1-0.4,1.2-0.8,1-1.7c-0.1-0.6-0.6-3.7-1-6.7C166,196,165.9,195.8,164.5,196.4z M165.1,205.4l0.5,3.1l-2.2-2.5l-2.3-2.5l1.5-0.8c0.8-0.5,1.6-0.7,1.8-0.6C164.5,202.2,164.8,203.8,165.1,205.4z"/><path fill="#F1F1F1" data-title="Layer 31" xs="31" d="M148.2,203.2c-1.5,1.5-1.8,3.3-0.6,3.3c0.4,0,1.3-0.6,2-1.4c1.6-1.8,2.5-1.8,4.2,0c3.6,3.9,2,10.6-2,8.5c-1-0.5-1.2-0.5-1.8,0.2c-0.6,0.7-0.6,0.8,0.6,1.6c2.9,1.7,6.3,0.2,7.4-3.2c1-2.8-0.6-7.4-3-9.4C152.9,201.3,149.9,201.4,148.2,203.2z"/><path fill="#F1F1F1" data-title="Layer 32" xs="32" d="M143,204c-0.6,0.2-0.7,0.6-0.5,2.6c0.3,2.6-0.4,3.9-1.4,2.5c-2.3-3.1-3.6-4.1-5-4l-1.5,0.1l3.1,3.3l3.1,3.3l-1.6,3.3c-0.9,1.8-1.7,3.4-1.7,3.6c0,0.2,0.6,0.3,1.2,0.2c1-0.2,1.5-0.9,2.9-3.7l1.6-3.5l0.5,3c0.5,2.9,1,3.6,2.3,3.1c0.5-0.2,0.4-1.5-0.5-6.9c-0.6-3.6-1.1-6.7-1.1-7C144.5,203.7,144.3,203.7,143,204z"/></g></g></g>
</svg>