<!--?xml version="1.0" encoding="utf-8"?-->
<!-- Svg Vector Icons : http://www.onlinewebfonts.com/icon -->

<svg version="1.1" xmlns="http://www.w3.org/2000/svg" xmlns:xlink="http://www.w3.org/1999/xlink" x="0px" y="0px" viewBox="0 0 256 256" enable-background="new 0 0 256 256" xml:space="preserve">
<metadata> Svg Vector Icons : http://www.onlinewebfonts.com/icon </metadata>
<g><g><path fill="#f53d80" data-title="Layer 0" xs="0" d="M125.5,52c55.4-0.7,102,13.8,104,32.2c1.9,18.4-41.5,33.9-96.9,34.5c-55.4,0.7-102-13.8-104-32.2C26.6,68.2,70,52.7,125.5,52z"/><path fill="#f53d80" data-title="Layer 1" xs="1" d="M28.6,128.4c-0.1-0.8-0.1-1.6,0-2.4V89.5h0c-0.1,0.8-0.1,1.5,0,2.3c1.9,18.4,48.5,32.8,104,32.2c53-0.6,95.1-14.8,96.9-32.2v36.5h-0.1c-1.8,17.4-43.8,31.6-96.9,32.2C77.1,161.2,30.5,146.8,28.6,128.4L28.6,128.4z"/><path fill="#f53d80" data-title="Layer 2" xs="2" d="M28.6,171c-0.1-0.8-0.1-1.6,0-2.4v-36.5h0c-0.1,0.8-0.1,1.6,0,2.3c1.9,18.4,48.5,32.8,104,32.2c53-0.6,95.1-14.8,96.9-32.2V171h-0.1c-1.8,17.4-43.8,31.6-96.9,32.2C77.1,203.9,30.5,189.5,28.6,171L28.6,171z"/><path fill="#f53d80" data-title="Layer 3" xs="3" d="M28.6,213.7c-0.1-0.8-0.1-1.6,0-2.4v-36.5h0c-0.1,0.8-0.1,1.6,0,2.3c1.9,18.4,48.5,32.8,104,32.2c53-0.6,95.1-14.8,96.9-32.2v36.5h-0.1c-1.8,17.4-43.8,31.6-96.9,32.2C77.1,246.6,30.5,232.2,28.6,213.7z"/><path fill="#f53d80" data-title="Layer 4" xs="4" d="M176.3,10h-4.3v28h20l2.7-4.6h-18.4L176.3,10L176.3,10z M118,11.4L102.3,38h5.2l4.7-8h10.1l2.6-4.6h-10.1l5.5-9.2L133.2,38h5.2l-15.7-26.7C121.6,9.6,119.1,9.6,118,11.4L118,11.4z M148.2,14.6h17.9l2.6-4.6h-20.7c-7.2,0-11.9,6.3-11.9,14c0,7.7,4.7,14,11.9,14l17.5,0l2.7-4.5h-20.1c-4.8,0-7.7-4.2-7.7-9.4C140.5,18.8,143.4,14.6,148.2,14.6z M56.9,10H38.4c-7.2,0-11.9,6.3-11.9,14c0,7.7,4.7,14,11.9,14h18.4c7.2,0,11.9-6.3,11.9-14C68.8,16.3,64,10,56.9,10L56.9,10z M56.9,33.4H38.4c-4.8,0-7.7-4.2-7.7-9.4c0-5.2,2.8-9.4,7.7-9.4h18.4c4.8,0,7.7,4.2,7.7,9.4C64.5,29.2,61.7,33.4,56.9,33.4z M199.5,26.2H222l2.7-4.6h-25.3c0.7-4,3.4-7.1,7.5-7.1h17.9l2.7-4.6h-20.7c-7.2,0-11.9,6.3-11.9,14c0,7.7,4.7,14,11.9,14l17.5,0l2.7-4.5H207C202.8,33.4,200.2,30.3,199.5,26.2L199.5,26.2z M93.1,26.6c4.3,0,7.7-3.7,7.7-8.3c0-4.6-3.5-8.3-7.7-8.3H71.3v28h4.8V14.6H93c1.9,0,3.5,1.7,3.5,3.8c0,2.1-1.6,3.8-3.5,3.8H79.4L94.8,38h6.2L90,26.7L93.1,26.6z"/></g></g>
</svg>