<!--?xml version="1.0" encoding="utf-8"?-->
<!-- Svg Vector Icons : http://www.onlinewebfonts.com/icon -->

<svg version="1.1" xmlns="http://www.w3.org/2000/svg" xmlns:xlink="http://www.w3.org/1999/xlink" x="0px" y="0px" viewBox="0 0 256 256" enable-background="new 0 0 256 256" xml:space="preserve">
<metadata> Svg Vector Icons : http://www.onlinewebfonts.com/icon </metadata>
<g><g><path fill="#F1F1F1" data-title="Layer 0" xs="0" d="M10,211.5l137.5,24.6V19.9L10,44.5V211.5L10,211.5z M44.4,83.8H64l9.8,18.6l9.8-18.6h19.7l-19.7,37.1l24.6,46.4H88.6l-14.7-27.8l-14.7,27.9H39.5L64,120.9L44.4,83.8z M172.1,123.1h-24.6v9.8h24.6V123.1z M172.1,182h-24.6v9.8h24.6V182z M172.1,152.6h-24.6v9.8h24.6V152.6z M172.1,93.6h-24.6v9.8h24.6V93.6z M172.1,64.2h-24.6V74h24.6V64.2z M186.8,162.4h34.4v-9.8h-34.4V162.4z M186.8,132.9h34.4v-9.8h-34.4V132.9z M186.8,191.8h34.4V182h-34.4V191.8z M221.2,64.2h-34.4V74h34.4V64.2z M186.8,103.4h34.4v-9.8h-34.4V103.4z M147.5,34.7v9.8h88.4v167h-88.4v9.8H246V34.7L147.5,34.7L147.5,34.7z"/></g></g>
</svg>