<!--?xml version="1.0" encoding="utf-8"?-->
<!-- Svg Vector Icons : http://www.onlinewebfonts.com/icon -->

<svg version="1.1" xmlns="http://www.w3.org/2000/svg" xmlns:xlink="http://www.w3.org/1999/xlink" x="0px" y="0px" viewBox="0 0 256 256" enable-background="new 0 0 256 256" xml:space="preserve">
<metadata> Svg Vector Icons : http://www.onlinewebfonts.com/icon </metadata>
<g><g><path fill="#f1f1f1" data-title="Layer 0" xs="0" d="M119.8,115.3c-1.5,0.2-1,1.5-1.9,1.5C117.1,116.9,117.2,115.1,119.8,115.3z M124.4,115.5c1.5-0.4,1.5,1.1,2.3,0.8C127.5,116.1,126.7,114.5,124.4,115.5z M176.1,208.4c-4.6,2.2-10.7,7.1-12.9,9.1c-1.7,1.5-8.6,2.2-12.5,0.4c-4.6-2.2-2.1-5.7-9.2-5.8c-3.5-0.1-6.9-0.1-10.4-0.1c-3,0-6.1,0.1-9.2,0.3c-10.6,0.1-11.7,6.6-18.4,6.4C98.9,218.4,93,215,83,213c-7.1-1.4-13.8-1.7-15.3-4.6c-1.4-2.9,1.8-6.2,2-9.1c0.3-3.8-3.1-9-0.6-11c2-1.7,6.5-0.4,9.3-2c3.1-1.6,4.3-2.9,4.3-6.4c1.1,3.6,0,6.5-2.6,8c-1.5,0.8-4.3,1.3-6.6,1.1c-1.8-0.2-2.9,0.1-3.5,0.8c-0.7,0.8-0.5,2.3,0.4,4.3s2,3.2,1.8,5.6c-0.1,2.4-3,5.3-2.5,7.3c0.2,0.8,1,1.4,2.9,2c3.2,0.8,9,1.6,14.7,2.9c6.3,1.5,12.9,4.2,16.9,3.7c12.2-1.6,5.2-13.8,3.3-16.7c-10.3-15.2-17-25.1-22.5-21.1c-1.4,1-1.5-2.6-1.4-4c0.2-5,2.9-6.7,4.5-10.6c3-7.3,5.3-15.6,10-19.9c3.4-4.1,8.8-11,9.9-14.6c-0.9-7.9-1.1-16.1-1.3-23.3c-0.1-7.7,1.2-14.4,10.4-19.1c2.3-1.2,5.2-1.6,8.3-1.6c5.5,0,11.7,1.4,15.6,4.1c6.2,4.3,10.2,13.6,9.7,20.2c-0.4,5.1,0.6,10.5,2.4,16c2.1,6.5,5.4,11.1,10.6,16.4c6.3,6.3,11.3,18.7,12.6,26.6c1.3,7.3-0.4,11.9-2.1,12.1c-2.6,0.4-4.1,8-12.2,7.6c-5.1-0.2-5.6-3.1-7-5.5c-2.3-3.9-4.6-2.6-5.5,1.4c-0.5,2.1-0.1,5,0.6,7.3c1.4,4.7,0.9,9.2,0.1,14.6c-1.6,10.4,7.7,12.4,14,7.4c6.2-4.9,7.6-5.7,15.5-8.2c11.9-3.8,7.9-7.2,1.5-9.2c-5.7-1.8-6-10.9-3.9-12.6c0.5,9.8,5.9,11.2,8.2,12.5C195.5,201,181.9,205.7,176.1,208.4L176.1,208.4z M149.6,179.8c1.1-1.2,2.4-1.3,4-1.4c0.3-5.9,10.1-5.5,13.4-3c0-1.4-3.1-2.6-4.3-3.2c2.2-6.7,1.1-9.4-0.3-15.8c-1.1-4.8-5.8-11.4-9.5-13.4c0.9,0.8,2.7,3,4.6,6.3c3.2,5.6,6.4,13.9,4.3,20.9c-0.8,2.7-2.7,3-3.9,3.1c-5.7,0.6-2.3-6.3-4.7-15.7c-2.6-10.5-5.3-11.3-6-12.1c-3.3-13.6-6.9-12.3-7.9-17.4c-0.9-4.6,4.2-8.3-2.8-9.6c-2.1-0.4-5.2-2.4-6.4-2.6c-1.2-0.1-1.8-7.5,2.6-7.8c4.4-0.3,5.3,4.7,4.4,6.6c-1.3,2,0.1,2.7,2.3,2c1.8-0.5,0.6-4.9,1.1-5.5c-1.2-6.3-3.9-7.2-6.8-7.7c-11,0.8-6.1,12.2-7.2,11.1c-1.6-1.6-6.2-0.1-6.2-1.1c0.1-5.8-2-9.2-4.8-9.3c-3.2-0.1-4.5,4.1-4.7,6.5c-0.2,2.3,1.4,7,2.6,6.6c0.8-0.2,2.1-1.7,0.7-1.7c-0.7,0-1.9-1.6-2-3.6c-0.1-2,0.7-3.9,3.4-3.8c3.2,0.1,3.2,5.9,2.8,6.2c-1,0.7-2.3,2-2.5,2.2c-1,1.6-3,2-3.8,2.7c-1.4,1.3-1.7,2.8-0.7,3.4c3.6,2,2.5,4.1,7.6,4.4c3.3,0.1,5.9-0.5,8.1-1.2c1.8-0.5,7.5-1.6,8.7-3.6c0.5-0.8,1.2-0.9,1.6-0.6c0.8,0.4,0.9,1.8-1,2.3c-2.8,0.7-5.7,2.1-8.2,3.1c-2.5,0.9-3.3,1.3-5.6,1.7c-5.3,0.9-9.2-1.8-5.7,1.4c1.2,1.1,2.3,1.7,5.3,1.6c6.7-0.2,14.1-7.8,14.9-4.4c0.1,0.7-2.1,1.6-3.9,2.5c-6.2,2.9-10.6,8.6-14.6,6.6c-3.6-1.8-7.1-10.1-7.1-6.4c0.1,5.8-8.1,10.9-4.3,17.5c-2.4,0.6-8,11.7-8.8,17.4c-0.4,3.3,0.3,7.3-0.5,9.6c-1.2,3.3-6.7-3.1-4.9-11c0.3-1.4,0-1.7-0.3-1c-2.2,3.7-1,8.8,0.7,12.5c0.8,1.6,2.6,2.3,3.9,3.6c2.9,3,13.8,10.6,15.8,12.5c2.4,2.2,1.7,7.3-3.4,7.8c2.6,4.6,5.2,5.1,5.1,12.7c3-1.5,1.8-4.8,0.5-6.9c-0.9-1.5-2-2.1-1.8-2.5c0.2-0.3,1.7-1.5,2.6-0.5c2.7,2.8,7.8,3.3,13.3,2.7c5.5-0.6,11.4-2.5,14.1-6.5c1.3-1.9,2.2-2.6,2.8-2.3c0.6,0.3,0.8,1.7,0.8,3.9c-0.1,2.4-1.2,4.9-1.8,7c-0.7,2.3-1,3.9,1.4,4c0.7-4.2,2-8.4,2.3-12.6C149.3,193.1,145.7,184.2,149.6,179.8L149.6,179.8z M116,112c-0.2,0.9-0.1,1.5,0.6,1.5c0.1,0,0.2,0,0.3-0.3c0.3-1.9-0.7-3.2-1.1-3.3c-1-0.2-0.8,1.1-0.3,1C115.7,110.9,116.2,111.3,116,112L116,112z M134.1,109.4c-1,0.1-0.7,0.6-0.2,0.7c0.7,0.2,1.3,1.2,1.4,2.4c0,0.1,0.8-0.2,0.8-0.4C136.2,110.3,134.5,109.4,134.1,109.4L134.1,109.4z"/><path fill="#f1f1f1" data-title="Layer 1" xs="1" d="M186.3,37.3c-3.3-0.4-6.2-0.4-5,3.8c0,9,0,17.9,0,26.9c7.9,0,15.7,0,23.5,0c1.1-2.2,5.3-6.2,0.3-5c-6.3,0-12.6,0-18.9,0C186.3,54.4,186.3,45.8,186.3,37.3L186.3,37.3z M117.6,38.8c-6.1,9.7-12.2,19.4-18.4,29.1c2.8-0.3,6.6,1.2,7.6-2.4c1.9-1.9,2.5-6.4,5.4-6.4c3.5,0,6.9,0,10.4,0c1.1-2.2,5.3-6.2,0.2-5c-3,0-6,0-9,0c2.1-3.4,4.3-6.7,6.5-10.1c5,8,10.1,15.9,15.1,23.9c2.5-0.3,8.2,1.2,4.5-2.4c-5.7-8.9-11.3-17.9-17-26.8C121.9,36.7,118.7,36.9,117.6,38.8z M153.2,42.3c7,0,14,0,21.1,0c1.1-2.2,5.3-6.2,0.2-5c-8.6,0.3-17.4-0.7-25.9,0.7c-13.4,4.2-12.5,26.9,1.4,29.6c7.8,0.6,15.7,0.1,23.6,0.3c1.1-2.2,5.4-6.1,0.4-5c-7.6-0.1-15.2,0.3-22.8-0.2C140.9,60.5,142.1,42,153.2,42.3L153.2,42.3z M45.7,37.3c-8.2,0.2-16.5-0.4-24.7,0.3C7,40.3,6.2,63.1,19.6,67.2c8.5,1.4,17.3,0.4,25.9,0.7c11.9,0.6,17.9-14.7,12.1-23.9C55.2,39.8,50.5,37.2,45.7,37.3L45.7,37.3z M45.7,62.9c-7.9-0.1-15.8,0.3-23.7-0.2c-10.6-2.3-8.8-21.3,2.5-20.4c7.8,0.1,15.5-0.3,23.3,0.2C58,44.7,56.7,63.2,45.7,62.9z M213.5,55c8.8,0,17.7,0,26.5,0c1.1-2.2,5.3-6.2,0.3-5c-9,0-17.9,0-26.9,0c0.8-7.2,8.3-8.3,14-7.8c5.3,0,10.5,0,15.8,0c1.1-2.2,5.3-6.2,0.2-5c-8.6,0.3-17.4-0.7-25.9,0.7c-13.4,4.2-12.5,26.9,1.4,29.6c7.8,0.6,15.8,0.1,23.6,0.3c1.1-2.2,5.4-6.1,0.4-5c-7.5-0.1-15,0.2-22.5-0.1C216.7,62.2,214,58.7,213.5,55L213.5,55z M88.3,55.5c12.7,0.4,11-20.4-1.4-18.2c-8,0-16.1,0-24.1,0c0,10.2,0,20.4,0,30.7c3,0,7,1,5.6-3.3c0-7.4,0-14.9,0-22.3c7.2,0.2,14.4-0.4,21.5,0.3c6.9,5.2-2.2,9.3-7.3,7.9c-3.4,0-6.8,0-10.3,0c6,5.8,12,11.6,18,17.4c1.6-0.5,8.6,1.1,6.2-1c-3.9-3.8-7.9-7.6-11.9-11.4C85.9,55.5,87.1,55.5,88.3,55.5L88.3,55.5z"/></g></g>
</svg>