<!--?xml version="1.0" encoding="utf-8"?-->
<!-- Svg Vector Icons : http://www.onlinewebfonts.com/icon -->

<svg version="1.1" xmlns="http://www.w3.org/2000/svg" xmlns:xlink="http://www.w3.org/1999/xlink" x="0px" y="0px" viewBox="0 0 256 256" enable-background="new 0 0 256 256" xml:space="preserve">
<metadata> Svg Vector Icons : http://www.onlinewebfonts.com/icon </metadata>
<g><g><path fill="#f1f1f1" data-title="Layer 0" xs="0" d="M177.9,87.8c-0.5-0.9-0.9-1.9-1.3-2.8c-0.6-0.8-1.4-1.5-1.9-2.4c0,0-0.1,0-0.1,0c0,0,0-0.1,0-0.1c0.7-0.2,1.4-0.3,2.5-0.3c0.5,0.5,1.2,0.8,1.6,1.3c0.3,0.4,0.3,0.9,0.7,1.2c0,1.4-0.4,2.4-1.2,3C178,87.7,178,87.8,177.9,87.8z M238.8,148.5c-2.2-1.4-4.9-2.2-7.2-3.6c-1.3-0.8-2.6-1.8-3.8-2.7c-1.1-0.8-2.4-2.4-3.1-3.6c-0.4-0.6-0.5-1.4-0.9-1.9c0.1-1.1,1.6-1.1,2.5-1.5c3.1-1.3,6.8-1.8,11.6-1.6c-0.1-1.2-3.1-2.7-4.1-3.4c-1.9-1.3-3.9-2.8-6-4c-1.1-0.7-2.9-1.1-4.1-1.6c-1.6-0.7-5.2-1.3-6.1-2.6c-1.8-2.3-3-5.2-4.2-8c-1.3-2.8-2.8-5.8-4.1-8.6c-0.6-1.4-0.9-2.7-1.6-4C203.2,93,196.8,86,189,81.1c-2.6-1.6-5.4-3.1-8.6-4c-1.8-0.5-3.9-0.2-5.9-0.7c-0.4,0-0.8,0-1.2,0c-1.1-0.3-2-1.4-2.9-2c-1.9-1.2-3.7-2.1-5.9-3c-0.8-0.3-3-1.1-3.8-0.5c-0.5,0.1-0.7,0.3-0.8,0.8c-0.5,0.7,0,1.8,0.3,2.4c0.9,1.9,2.1,3,3.3,4.6c1,1.4,2.3,3,3,4.6c1.5,3.3,2.2,7,3.7,10.3c0.6,1.3,1.4,2.7,2.2,3.8c0.7,0.9,1.8,1.5,2.2,2.7c0.7,1.2-1.1,5.1-1.5,6.3c-1.6,4.8-1.2,11.6,0.6,15.8c0.7,1.7,1.4,3.6,3.3,4c0.1-0.1,0,0,0.3-0.1c0.4-3.2,0.6-6.4,1.6-8.9c0.7-1.6,2-2.7,2.9-4c0.7,0.4,0.7,1.4,0.9,2.2c0.8,1.9,1.6,3.9,2.6,5.7c2,3.8,4.2,7.5,6.6,10.8c0.9,1.2,2.1,2.5,3.1,3.5c0.5,0.4,1,0.7,1.3,1.2c0,0,0.1,0,0.1,0c0,0,0,0.1,0,0.1c-1.8-0.6-2.9-2.5-4.4-3.5c-2.7-2-5.9-5.1-7.8-7.9c-0.8-1.6-1.6-3.3-2.5-4.9c0,0,0-0.1,0-0.1c-0.3,0.5-0.2,0.9-0.4,1.6c-0.8,3-0.2,6.3-2.9,7.4c-3.1,1.3-5.3-2-6.3-3.5c-3.1-4.9-3.9-13.2-1.8-19.8c0.5-1.5,0.5-3.3,1.3-4.5c-0.1-1-1-1.3-1.5-2c-0.8-1.1-1.5-2.4-2.2-3.6c-1.3-2.4-2.1-5.3-3.1-8c-0.4-1.1-0.5-2.1-1-3.1c-0.7-1.5-2-3.1-3-4.5c-1.4-2-5.4-5.7-3.8-9.6c2.5-6.1,11.3-1.5,14.7,0.7c0.9,0.5,1.8,1.6,2.7,2c1.5,0.1,3,0.2,4.5,0.3c2.8,0.7,5.4,1.2,7.6,2.4c10.3,6,16.9,12.1,23.1,22.1c1.3,2.1,1.9,4.4,3,6.7c1.5,3.4,3.2,7,4.9,10.3c0.8,1.6,1.4,3.3,2.5,4.6c0.4,0.6,1.6,0.7,2.3,1.1c2,1,4.4,1.8,6.3,3c3.4,2.1,6.7,4.7,9.8,7.3c1.2,1,1.9,2.4,3,3.5c0,0.2,0,0.4,0,0.5c-1,0.3-1.9,0.5-2.9,0.8c-2.1,0.6-3.9,0.4-6,0.9c-1.2,0.3-2.8,0.8-4.1,0.9c0,0,0.1,0.1,0.1,0.1c0.8,2.1,4.9,3.9,6.8,5.3c2.3,1.7,4.5,3.7,6.3,5.9c0.6,0.6,1.2,1.2,1.8,1.8c0.4,0.6,0.5,1.3,0.9,1.9c0,0,0,0.1,0,0.1c-0.8-0.3-1.3-1-1.9-1.5C241.5,150.4,240.1,149.4,238.8,148.5z M164.8,142.1h14.8c0.7,0,1.4,0,2.2,0.1c6.5,0.9,9.8,3.7,9.8,8.4V169c0,3.8-1.4,5.8-4.6,7.1l7.7,6.9h-9l-6.2-5.6l-6.2,0.4h-8.3c-1.4,0-2.9-0.2-4.6-0.6c-4.9-1.3-7.3-3.9-7.3-8.2v-18.4c0-4.7,3.3-7.5,9.8-8.4C163.4,142.2,164.1,142.1,164.8,142.1z M161.3,168.6c0,0.2,0.1,0.5,0.1,0.8c0.5,2.1,2.5,3.3,5.5,3.3h7.1l-6.5-5.8h9l5.7,5.1c1-0.6,1.7-1.4,2-2.5c0.1-0.2,0.1-0.5,0.1-0.7v-17.6c0-0.2,0-0.4-0.1-0.7c-0.5-2-2.5-3.1-5.5-3.1H167c-3.4,0-5.7,1.5-5.7,3.8L161.3,168.6L161.3,168.6z M125.3,147.3c-2.8,0.2-3.6,0.7-4,2.3c-0.1,0.2-0.1,0.5-0.1,0.7v3.5c0,0.2,0,0.4,0.1,0.7c0.4,2.1,1.9,3,5,3h9.4c2.3,0,4.7,0.4,6.6,1.1c3.7,1.4,5.5,3.5,5.5,5.7v5.6c0,2.7-1.6,4.8-5,6.3c-2,0.9-4.6,1.5-7.2,1.5h-22.3v-5.1h21.5c0.3,0,0.5,0,0.8,0c1.5-0.1,2.6-0.5,3.3-1.1c0.7-0.6,1.1-1.3,1.1-1.8v-4.5c0-0.5-0.1-0.9-0.6-1.4c-0.7-0.9-1.8-1.3-4.3-1.5c-0.2,0-0.5,0-0.8,0h-8.1c-0.7,0-1.5,0-2.2-0.1c-6.6-0.7-10.6-3.7-10.6-7.1v-4.5c0-3.9,2-6.2,6.6-7.7c1.5-0.4,3.1-0.7,6.3-0.7h21.8v5.2H126C125.8,147.2,125.5,147.3,125.3,147.3z M95.1,188.5H70.5v-5.2c0,0,24.5,0,24.6,0c5-0.5,4.4-3,4.4-3.8v-2H83c-7.7-0.1-12.6-3.4-12.6-7.2c0-0.4,0.2-17.1,0-17.3h7.8v16.8c-0.1,0.9,0.3,3.1,4.6,3.1c2.2,0,16.8,0,16.9,0v-20h7.8c0,0,0,27.3,0,27.4C107.4,186.9,99,188.4,95.1,188.5z M56.1,147.2l-12,26.6c-1.4,3.2-3.3,4.4-7.1,4.4c-3.8,0-5.8-1.1-7.2-4.4l-12-26.6v30.5H10v-30.4c0-3,1.2-4.4,3.7-5.2c5.9-1.8,9.9-0.2,11.7,3.7L36.8,172l11.8-26.2c1.8-3.9,5.8-5.5,11.7-3.7c2.5,0.7,3.7,2.2,3.7,5.2v30.4h-7.8L56.1,147.2L56.1,147.2z M204.2,168.7c0,2.7,1.7,3.9,6.3,3.9h20.4v5.2h-20.3c-0.7,0-1.5,0-2.2-0.1c-8-0.6-12-3.6-12-8.9v-26.7h7.8L204.2,168.7L204.2,168.7z M240.3,166.7c3,0,5.7,2.3,5.7,5.7s-2.7,5.7-5.7,5.7c-3,0-5.7-2.3-5.7-5.7S237.2,166.7,240.3,166.7z M240.3,176.9c2.5,0,4.5-1.9,4.5-4.5s-2-4.5-4.5-4.5c-2.5,0-4.5,1.9-4.5,4.5S237.8,176.9,240.3,176.9z M243,171c0,1.2-0.8,1.7-1.8,1.8l1.9,2.8h-1.3l-1.7-2.8h-1v2.8H238v-6.5h2.6C242.1,169.2,243,169.7,243,171z M239.1,170.1v1.9h1.2c0.8,0,1.5-0.1,1.5-1c0-0.7-0.8-0.9-1.4-0.9L239.1,170.1L239.1,170.1z"/></g></g>
</svg>