<!--?xml version="1.0" encoding="utf-8"?-->
<!-- Svg Vector Icons : http://www.onlinewebfonts.com/icon -->

<svg version="1.1" xmlns="http://www.w3.org/2000/svg" xmlns:xlink="http://www.w3.org/1999/xlink" x="0px" y="0px" viewBox="0 0 256 256" enable-background="new 0 0 256 256" xml:space="preserve">
<metadata> Svg Vector Icons : http://www.onlinewebfonts.com/icon </metadata>
<g><g><path fill="#F1F1F1" data-title="Layer 0" xs="0" d="M169.1,118.7c-14-6.6-31.8-7.9-44.9,1.4c15.9-1.5,33.4,1.1,45,13.2c11.1-12.7,28.6-15.1,44.5-13.8C200.4,110.7,182.9,111.9,169.1,118.7z M163.4,149.6c-15.7-0.4-31,5.3-44,13.8c-24.7-10.5-55.9-8.5-77,9c6.1-0.2,12-1.7,18-2.5c21.9-2.2,45.3,3.3,61.9,18.4c6.9-10,16.5-18,27.6-23c14.5-7.1,30.9-7.8,46.7-8C187,150.7,174.8,149.5,163.4,149.6L163.4,149.6z M218.2,56L185.3,23c-7.2-7.2-21.3-13-31.5-13H43.2c-10.1,0-18.4,8.3-18.4,18.4v199.1c0,10.1,8.3,18.4,18.4,18.4h169.6c10.1,0,18.4-8.3,18.4-18.4V87.4C231.3,77.3,225.4,63.1,218.2,56L218.2,56L218.2,56z M207.8,66.4c0.7,0.7,1.4,1.6,2.1,2.6h-37.7V31.3c1,0.7,1.9,1.4,2.6,2.1L207.8,66.4L207.8,66.4z M216.5,227.5c0,2-1.7,3.7-3.7,3.7H43.2c-2,0-3.7-1.7-3.7-3.7V28.4c0-2,1.7-3.7,3.7-3.7h110.6c1.1,0,2.4,0.1,3.7,0.4v58.6h58.6c0.2,1.3,0.4,2.6,0.4,3.7V227.5L216.5,227.5z"/></g></g>
</svg>