<!--?xml version="1.0" encoding="utf-8"?-->
<!-- Svg Vector Icons : http://www.onlinewebfonts.com/icon -->

<svg version="1.1" xmlns="http://www.w3.org/2000/svg" xmlns:xlink="http://www.w3.org/1999/xlink" x="0px" y="0px" viewBox="0 0 256 256" enable-background="new 0 0 256 256" xml:space="preserve">
<metadata> Svg Vector Icons : http://www.onlinewebfonts.com/icon </metadata>
<g><g><g><path fill="#F1F1F1" data-title="Layer 0" xs="0" d="M123.2,18.8c-10.7,1.9-39.7,7.2-64.6,11.7c-24.9,4.4-46,8.3-46.9,8.6c-1.6,0.5-1.7,5.6-1.7,89v88.4l24.8,4.4c13.6,2.5,43.4,7.8,66.2,12c22.8,4.2,41.8,7.5,42.3,7.5c0.9,0,0.9-224.4,0-224.9C142.9,15.4,133.9,16.8,123.2,18.8z M92.6,90.5c5.8,1.6,11.3,7.7,12.6,13.9c1.4,6.6,1.3,10.3-0.3,15.7c-1.8,6-5.4,10.5-11.2,13.8c-4.3,2.5-5.8,2.8-12.6,2.8h-7.8v12.1v12.1l-5.8-0.4c-3.3-0.2-6.2-0.4-6.7-0.5c-0.8-0.2-1-67.6-0.3-68.4C62.1,89.9,87.5,89.1,92.6,90.5z"/><path fill="#F1F1F1" data-title="Layer 1" xs="1" d="M73.2,113.4v10.9h3.9c4.9,0,9.7-2.3,11.1-5.3c1.8-4.2,1.3-10.4-1.1-13.2c-1.9-2.2-3.2-2.6-8-3l-5.9-0.4L73.2,113.4L73.2,113.4z"/><path fill="#F1F1F1" data-title="Layer 2" xs="2" d="M151.5,63.5v5.2l41.8,0.2l41.7,0.3l0.3,50.7l0.2,50.8h3.2c1.8,0,4.1-0.8,5.2-1.6l2.1-1.7l-0.3-53.1c-0.3-51.4-0.4-53.2-2.1-54.5c-1.6-1.1-9.5-1.3-47-1.3h-45.1V63.5L151.5,63.5z"/><path fill="#F1F1F1" data-title="Layer 3" xs="3" d="M151.5,81.1c0,5.6,0.1,5.8,2.2,5.2c1.1-0.4,3.7-0.9,5.7-1.2l3.5-0.6v15.8v15.7H179h16.1l-0.7,3.5c-1.6,8.8-8.2,17.2-16.8,21.5c-3.9,1.9-6.2,2.4-12.2,2.4c-4.3,0-8.8-0.6-10.7-1.3l-3.3-1.4v5.7v5.6h27.4h27.4v6.1v6.1l-27.1,0.2l-27.2,0.3l-0.3,3.5l-0.3,3.6h26.9h27v6.1v6.1h-26.9h-26.9v6.1v6.1h37.1c34.8,0,37.3-0.1,38.7-1.7s1.6-7.1,1.6-58.9c0-54.1-0.1-57.2-1.7-58.6c-1.6-1.4-5.7-1.6-38.7-1.6h-37V81.1L151.5,81.1z M177.6,86.5c8.6,3.9,15.9,13.4,16.6,21.4l0.3,3.7l-13.9,0.3l-14,0.3V98.4V84.7h3.6C172.1,84.7,175.5,85.6,177.6,86.5z"/></g></g></g>
</svg>