<!--?xml version="1.0" encoding="utf-8"?-->
<!-- Svg Vector Icons : http://www.onlinewebfonts.com/icon -->

<svg version="1.1" xmlns="http://www.w3.org/2000/svg" xmlns:xlink="http://www.w3.org/1999/xlink" x="0px" y="0px" viewBox="0 0 256 256" enable-background="new 0 0 256 256" xml:space="preserve">
<metadata> Svg Vector Icons : http://www.onlinewebfonts.com/icon </metadata>
<g> <path fill="#023353" data-title="Layer 0" xs="0" d="M128,10c65.2,0,118,52.8,118,118s-52.8,118-118,118S10,193.2,10,128S62.8,10,128,10z M104.5,167.3 c1.7,6.4,1.5,12.3-0.2,17.6l-0.6,1.8c-0.2,0.6-0.5,1.2-0.8,1.7c-1.4,2.8-3.2,5.5-5.5,8c-6.9,7.5-16.4,10.3-20.6,7.9 c-4.4-2.6-2.2-13.1,5.7-21.5c8.6-9,20.8-14.8,20.8-14.8v0L104.5,167.3z M202,60.5c-5.3-21-40.1-27.9-73-16.2 c-19.6,7-40.7,17.9-56,32.1c-18.1,16.9-21,31.7-19.8,37.8c4.2,21.7,34,36,46.2,46.5v0.1c-3.6,1.8-30,15-36.2,28.8 c-6.6,14.5,1,24.8,6,26.1c15.5,4.3,31.4-3.5,40-16.2c8.2-12.4,7.5-28.3,4-36.2c4.9-1.3,10.6-1.9,18-1c20.7,2.4,24.8,15.3,23.9,20.7 c-0.9,5.3-5.1,8.4-6.6,9.3c-1.5,0.9-1.9,1.2-1.8,1.8c0.2,0.9,0.9,0.9,2.1,0.7c1.6-0.3,10.8-4.4,11.2-14.5 c0.4-12.7-11.7-26.8-33.2-26.6c-8.9,0.2-14.5,0.9-18.4,2.5c-0.3-0.4-0.6-0.8-1-1C94,141,69.4,131,70.4,111.9 c0.3-6.9,2.8-25.2,47.2-47.3c36.4-18.2,65.5-13.1,70.5-2.1c7.2,15.8-15.5,45.1-53.4,49.4c-14.5,1.6-22-4-23.9-6 c-2.1-2.2-2.3-2.4-3.1-1.9c-1.2,0.6-0.4,2.5,0,3.7c1.2,3,5.7,8.1,13.7,10.8c6.9,2.2,23.9,3.5,44.2-4.4 c22.9-8.9,40.7-33.6,35.5-54.2L202,60.5z"/></g>
</svg>