<!--?xml version="1.0" encoding="utf-8"?-->
<!-- Svg Vector Icons : http://www.onlinewebfonts.com/icon -->

<svg version="1.1" xmlns="http://www.w3.org/2000/svg" xmlns:xlink="http://www.w3.org/1999/xlink" x="0px" y="0px" viewBox="0 0 256 256" enable-background="new 0 0 256 256" xml:space="preserve">
<metadata> Svg Vector Icons : http://www.onlinewebfonts.com/icon </metadata>
<g><g><g><path fill="#023353" data-title="Layer 0" xs="0" d="M91,10.1C75.8,11.8,60.2,17.6,48.1,26c-6.4,4.4-17.7,15.7-22.1,22.1c-7,10.1-12.5,23.2-14.9,35.8c-1.4,7.7-1.4,23.5,0.1,31.3c3.5,18.9,11.5,34,25.1,47.6c13.4,13.4,27.2,20.8,46.2,24.8c5.1,1.1,8,1.4,17.1,1.4c12.1,0,18.3-1,28.6-4.4c24.1-8,44.3-26.9,54.2-50.5c11.6-27.7,8.5-59.2-8.4-84.8c-4.9-7.4-16.5-19.1-24.1-24.2c-10-6.7-21.3-11.3-33.1-13.7C111.2,10.4,96.2,9.6,91,10.1z M117.3,21.2c10.6,2.5,21.2,7.3,29.3,13.2l3.9,2.8l-6.5,6.5l-6.4,6.4l-2.1-1.8c-3.1-2.8-6.9-3.4-19-3.4c-17.1,0-12.8-2.8-42.7,27.1C56.9,88.8,47.7,98.4,46.9,100c-1.5,3-1.5,6.3,0,9.3c0.7,1.6,7.9,9.1,19.9,21.2c16.6,16.5,19.1,18.8,21.4,19.4c2.8,0.7,5.8,0.4,8.3-0.9c0.8-0.5,13.1-12.5,27.3-26.7l25.8-25.9l0.8-3.5c0.5-2.2,0.8-7.3,0.8-13.6c-0.1-12.2-0.8-15.5-4.6-19.6l-2.5-2.7l6.7-6.6l6.6-6.6l1.8,2.1c9.5,10.9,15.8,23.2,18.8,37.3c2,8.9,2,24.2,0.1,33c-7.2,31.7-30.5,55.1-62.2,62.2c-8.9,2-24.1,2-33,0c-15.7-3.5-29.3-10.9-40.3-21.9c-11.1-11-18.4-24.5-21.9-40.3c-2-8.8-2-24.1,0.1-33c7-31.6,31-55.6,61.9-62.1c8.2-1.7,8.9-1.8,19.1-1.5C109,19.7,112.4,20.1,117.3,21.2z M134.8,61.3l7.3,7.3v11.2V91l-24.4,24.5c-13.4,13.4-24.9,24.7-25.5,25.1c-0.9,0.5-3.4-1.7-19-17.3c-9.9-9.9-18-18.2-18-18.6c0-0.3,11.2-11.8,24.9-25.5l25-25h11.2h11.2L134.8,61.3z"/><path fill="#023353" data-title="Layer 1" xs="1" d="M115.5,62.6c-4.8,1.7-8.9,7.3-8.9,11.9c0,4.6,4,10.4,8.7,12.9c5,2.5,9.6,1.6,14.1-2.8c5-5,5.4-10.2,1.4-16C127.1,63,120.9,60.7,115.5,62.6z M122,67.8c7.6,3.8,8.7,12.8,2.1,15.6c-2.8,1.2-5.9,0.1-9.3-3.3c-3.4-3.4-4.2-6.3-2.5-9.5c1.1-2,4.3-4.1,6.1-4.1C119,66.5,120.6,67.1,122,67.8z"/><path fill="#023353" data-title="Layer 2" xs="2" d="M92.6,84.4c-3.4,3.4-6.1,6.4-6.1,6.9c0,1.4,16.1,17.1,17.4,17.1c0.8,0,3.5-2.3,7.3-6.1c6.3-6.3,7.2-8.1,4.3-8.5c-1.1-0.2-2.5,0.8-6.2,4.6l-4.8,4.8l-2.6-2.7l-2.6-2.7l4.3-4.4c4.4-4.4,5.1-6.3,2.8-6.7c-0.7-0.2-2.5,1.2-5.4,4.1l-4.4,4.4l-2.2-2.2l-2.2-2.2l4.6-4.6c4.6-4.6,5.6-6.7,3.6-7.4c-0.5-0.2-1.1-0.4-1.3-0.4C98.9,78.3,96,81,92.6,84.4z"/><path fill="#023353" data-title="Layer 3" xs="3" d="M76.7,100.1c-6.1,4.4-7.2,11.9-2,14.5c2.7,1.4,4,1.1,9.9-1.8c5.3-2.7,5.6-2.7,7-1.8c2,1.3,2,3.8,0,6.2c-2,2.3-3.4,2.7-6.6,1.8c-2.1-0.6-2.8-0.6-3.5,0c-2.4,2,0.3,4.8,4.6,4.8c3.3,0,5.5-1.1,8.3-4.2c4.1-4.5,4.2-9.5,0.4-12.8c-2.7-2.2-5.7-2-11,0.9c-4.5,2.5-7,2.8-8,1.1c-0.8-1.2,0.5-3.9,2.7-5.4c1.4-1,1.9-1.1,3.9-0.6c2.7,0.7,4.3,0.1,4.3-1.5C86.5,98.1,80.6,97.3,76.7,100.1z"/><path fill="#023353" data-title="Layer 4" xs="4" d="M178.1,152c-5.9,8.7-17.4,20.3-26.2,26.2l-6.4,4.4l29.5,29.4c26.5,26.5,29.9,29.5,33.4,31.3c7.9,3.8,15.7,3.8,23.4,0.1c9.8-4.8,15.8-16.3,13.9-26.9c-1.5-8.8-1.5-8.8-33.9-41.3l-29.4-29.5L178.1,152z M235,213.1c3.1,6.3,1.8,13.5-3.3,18.7c-5.1,5.1-12.4,6.4-18.7,3.3c-1.9-0.9-9.9-8.5-27.6-26.2l-25-25l4.8-3.8c5.2-4.2,11.8-10.9,15.9-16.2l2.7-3.4l25,24.9C226.5,203.1,234.1,211.2,235,213.1z"/></g></g></g>
</svg>