<!--?xml version="1.0" encoding="utf-8"?-->
<!-- Svg Vector Icons : http://www.onlinewebfonts.com/icon -->

<svg version="1.1" xmlns="http://www.w3.org/2000/svg" xmlns:xlink="http://www.w3.org/1999/xlink" x="0px" y="0px" viewBox="0 0 256 256" enable-background="new 0 0 256 256" xml:space="preserve">
<metadata> Svg Vector Icons : http://www.onlinewebfonts.com/icon </metadata>
<g><g><path fill="#f1f1f1" data-title="Layer 0" xs="0" d="M26.9,203.9h134.9V187H26.9V203.9L26.9,203.9z M26.9,136.4h134.9v-16.9H26.9V136.4L26.9,136.4z M233.4,195.4c0-3.5-1.2-6.5-3.7-9c-2.5-2.5-5.4-3.7-9-3.7c-3.5,0-6.5,1.2-9,3.7c-2.5,2.5-3.7,5.4-3.7,9c0,3.5,1.2,6.5,3.7,9c2.5,2.5,5.4,3.7,9,3.7c3.5,0,6.5-1.2,9-3.7C232.1,201.9,233.4,198.9,233.4,195.4z M26.9,69h134.9V52.1H26.9V69z M233.4,128c0-3.5-1.2-6.5-3.7-9c-2.5-2.5-5.4-3.7-9-3.7c-3.5,0-6.5,1.2-9,3.7c-2.5,2.5-3.7,5.4-3.7,9c0,3.5,1.2,6.5,3.7,9c2.5,2.5,5.4,3.7,9,3.7c3.5,0,6.5-1.2,9-3.7C232.1,134.5,233.4,131.5,233.4,128L233.4,128z M233.4,60.6c0-3.5-1.2-6.5-3.7-9c-2.5-2.5-5.4-3.7-9-3.7c-3.5,0-6.5,1.2-9,3.7c-2.5,2.5-3.7,5.4-3.7,9c0,3.5,1.2,6.5,3.7,9s5.4,3.7,9,3.7c3.5,0,6.5-1.2,9-3.7C232.1,67.1,233.4,64.1,233.4,60.6z M246,170.1v50.6H10v-50.6H246z M246,102.7v50.6H10v-50.6H246z M246,35.3v50.6H10V35.3H246z"/></g></g>
</svg>