<!--?xml version="1.0" encoding="utf-8"?-->
<!-- Svg Vector Icons : http://www.onlinewebfonts.com/icon -->

<svg version="1.1" xmlns="http://www.w3.org/2000/svg" xmlns:xlink="http://www.w3.org/1999/xlink" x="0px" y="0px" viewBox="0 0 256 256" enable-background="new 0 0 256 256" xml:space="preserve">
<metadata> Svg Vector Icons : http://www.onlinewebfonts.com/icon </metadata>
<g><g><g><path fill="#F1F1F1" data-title="Layer 0" xs="0" d="M10,128v102.8l63.9-0.1l63.8-0.1L93,223c-24.6-4.1-47.8-8.1-51.4-8.8l-6.6-1.1v-70.9c0-49.9,0.3-70.9,1-70.9c0.6,0,24.2-4,52.5-8.8c28.4-4.8,52-8.8,52.5-8.8c0.6,0,0.9,32,0.9,88.5v88.5h52.1H246V128V25.2H128H10V128z M219.7,142.3V210l-36.6,0.3l-36.7,0.2v-9.7v-9.7H175h28.6v-3.7v-3.7H175h-28.6v-5.5v-5.5H175h28.6V169v-3.7H175h-28.6v-5.5v-5.5H175h28.6v-3.7v-3.7H175h-28.6v-5.5v-5.5H175h28.6v-3.7v-3.7H175h-28.6v-5.5v-5.5H175h28.6v-3.7V110H175h-28.6v-5.5V99H175h28.6v-3.7v-3.7H175h-28.6v-8.8v-8.8l36.7,0.2l36.6,0.3V142.3z"/><path fill="#F1F1F1" data-title="Layer 1" xs="1" d="M111.9,109.7l-2.9,0.4l-3.6,22c-2,12.2-4,22.1-4.3,22.1c-0.4,0-0.9-1.6-1.3-3.5c-3-16.2-7.6-39.1-8-39.5c-0.3-0.3-2.8-0.3-5.6,0.1c-3.5,0.5-5.3,1.1-5.6,2.2c-0.2,0.8-2.1,9.8-4.1,19.8c-3.6,17.8-4.1,19.8-5.1,18.8c-0.3-0.2-1.8-8.8-3.3-19.3c-1.7-10.3-3.3-19.2-3.7-19.6c-0.5-0.5-2.6-0.5-5.3,0l-4.4,0.8l2.4,12.9c1.4,7.1,3.9,20.1,5.5,28.8l3,15.9h5.7H77l4-19.6c2.2-10.7,4.1-19.7,4.3-19.9c0.7-1,1.5,1.8,5.3,20.6c2.2,11,4.1,20.1,4.3,20.3c0.2,0.2,3,0.5,6.3,0.6l6,0.4l6.6-30.9c3.7-17,6.7-31.6,6.7-32.5C120.6,109.1,118.9,108.8,111.9,109.7z"/></g></g></g>
</svg>