<!--?xml version="1.0" encoding="utf-8"?-->
<!-- Svg Vector Icons : http://www.onlinewebfonts.com/icon -->

<svg version="1.1" xmlns="http://www.w3.org/2000/svg" xmlns:xlink="http://www.w3.org/1999/xlink" x="0px" y="0px" viewBox="0 0 256 256" enable-background="new 0 0 256 256" xml:space="preserve">
<metadata> Svg Vector Icons : http://www.onlinewebfonts.com/icon </metadata>
<g><g><g><path fill="#F53D80" data-title="Layer 0" xs="0" d="M38.8,10.4c-3.2,0.8-6,3.5-6.9,6.6c-0.3,1.3-0.4,36.1-0.4,111.9l0.1,110.1l1.3,2.2c0.7,1.2,2.1,2.7,3.1,3.3c1.7,1,2.2,1.1,13,1.2l11.2,0.1l-0.1-117.9L60.1,10.2l-9.9-0.1C44.7,10.1,39.6,10.2,38.8,10.4z"/><path fill="#F53D80" data-title="Layer 1" xs="1" d="M63.5,10.3c-0.2,0.1-0.3,53.2-0.3,118v117.6l77.5-0.1l77.5-0.1l2-1.4c1.1-0.8,2.5-2.4,3.1-3.5l1.1-2.1V128.2V17.7l-1.2-2.4c-1.2-2.5-3.3-4.2-6-4.9C215.5,9.9,64,9.8,63.5,10.3z M126.1,127c4.9,13.8,9,25.5,9.2,26.1l0.3,1.1h-5.9h-5.9l-1.5-4.9c-0.8-2.6-1.7-5.3-1.8-6l-0.4-1.2l-9.5-0.1l-9.5-0.1l-1.5,4.8c-0.8,2.7-1.7,5.4-1.8,6.1c-0.4,1.2-0.4,1.2-6.4,1.3c-4.7,0.1-6,0-5.8-0.5c0.1-0.3,4.1-11.7,8.8-25.2c4.7-13.5,8.8-25.1,9-25.7c0.4-1,0.5-1.1,7.1-0.9l6.7,0.1L126.1,127z M166.6,103c7.6,1.9,11.5,7.3,11.5,15.7c0,5.5-2.4,10.5-6.5,13.3c-3.2,2.2-7.1,3.3-13.2,3.6l-5.3,0.3v9.2v9.1h-5.4h-5.4v-26v-26h10.6C161.2,102.2,164.1,102.4,166.6,103z M198.9,128.2v26h-5.4H188v-26v-26h5.4h5.4V128.2L198.9,128.2z"/><path fill="#F53D80" data-title="Layer 2" xs="2" d="M110.5,110.7c0,0.1-1.5,5-3.3,10.9l-3.2,10.6l6.3,0.1c3.5,0,6.5,0,6.6-0.1c0.1-0.1-1.2-4.8-2.9-10.5C110.5,110.1,110.6,110.4,110.5,110.7z"/><path fill="#F53D80" data-title="Layer 3" xs="3" d="M153.1,118.8l0.1,7.8l3.8-0.1c6.7-0.2,9.7-2.6,9.7-7.9c0-2.7-1.1-4.9-3.1-6.2c-0.9-0.6-2.5-0.9-6-1l-4.7-0.2L153.1,118.8z"/></g></g></g>
</svg>